<mxfile host="app.diagrams.net" modified="2022-08-09T08:51:26.319Z" agent="5.0 (Windows NT 10.0; Win64; x64) AppleWebKit/537.36 (KHTML, like Gecko) Chrome/103.0.0.0 Safari/537.36" etag="4FsxQ3Ay2qPUaW4Cggxy" version="20.2.3" type="github">
  <diagram id="R2lEEEUBdFMjLlhIrx00" name="Page-1">
    <mxGraphModel dx="2272" dy="794" grid="1" gridSize="10" guides="1" tooltips="1" connect="1" arrows="1" fold="1" page="1" pageScale="1" pageWidth="850" pageHeight="1100" math="0" shadow="0" extFonts="Permanent Marker^https://fonts.googleapis.com/css?family=Permanent+Marker">
      <root>
        <mxCell id="0" />
        <mxCell id="1" parent="0" />
        <mxCell id="csFT80J_wY6JviBkWLrX-1" value="Kindbook" style="swimlane;childLayout=stackLayout;horizontal=1;startSize=30;horizontalStack=0;rounded=1;fontSize=14;fontStyle=0;strokeWidth=2;resizeParent=0;resizeLast=1;shadow=0;dashed=0;align=center;" vertex="1" parent="1">
          <mxGeometry x="120" y="290" width="160" height="210" as="geometry" />
        </mxCell>
        <mxCell id="csFT80J_wY6JviBkWLrX-2" value="+ ID kind book&#xa;Book Name&#xa;Author&#xa;Pushliser&#xa;Release&#xa;Introduction&#xa;Image" style="align=left;strokeColor=none;fillColor=none;spacingLeft=4;fontSize=12;verticalAlign=top;resizable=0;rotatable=0;part=1;" vertex="1" parent="csFT80J_wY6JviBkWLrX-1">
          <mxGeometry y="30" width="160" height="180" as="geometry" />
        </mxCell>
        <mxCell id="csFT80J_wY6JviBkWLrX-3" value="User" style="swimlane;childLayout=stackLayout;horizontal=1;startSize=30;horizontalStack=0;rounded=1;fontSize=14;fontStyle=0;strokeWidth=2;resizeParent=0;resizeLast=1;shadow=0;dashed=0;align=center;" vertex="1" parent="1">
          <mxGeometry x="580" y="570" width="160" height="210" as="geometry" />
        </mxCell>
        <mxCell id="csFT80J_wY6JviBkWLrX-4" value="+ ID User&#xa;username&#xa;password&#xa;email&#xa;Image&#xa;&#xa;" style="align=left;strokeColor=none;fillColor=none;spacingLeft=4;fontSize=12;verticalAlign=top;resizable=0;rotatable=0;part=1;" vertex="1" parent="csFT80J_wY6JviBkWLrX-3">
          <mxGeometry y="30" width="160" height="180" as="geometry" />
        </mxCell>
        <mxCell id="csFT80J_wY6JviBkWLrX-5" value="Role" style="swimlane;childLayout=stackLayout;horizontal=1;startSize=30;horizontalStack=0;rounded=1;fontSize=14;fontStyle=0;strokeWidth=2;resizeParent=0;resizeLast=1;shadow=0;dashed=0;align=center;" vertex="1" parent="1">
          <mxGeometry x="1010" y="600" width="160" height="90" as="geometry" />
        </mxCell>
        <mxCell id="csFT80J_wY6JviBkWLrX-6" value="+ ID role&#xa;Role name&#xa;" style="align=left;strokeColor=none;fillColor=none;spacingLeft=4;fontSize=12;verticalAlign=top;resizable=0;rotatable=0;part=1;" vertex="1" parent="csFT80J_wY6JviBkWLrX-5">
          <mxGeometry y="30" width="160" height="60" as="geometry" />
        </mxCell>
        <mxCell id="csFT80J_wY6JviBkWLrX-9" value="Book" style="swimlane;childLayout=stackLayout;horizontal=1;startSize=30;horizontalStack=0;rounded=1;fontSize=14;fontStyle=0;strokeWidth=2;resizeParent=0;resizeLast=1;shadow=0;dashed=0;align=center;" vertex="1" parent="1">
          <mxGeometry x="600" y="200" width="160" height="70" as="geometry" />
        </mxCell>
        <mxCell id="csFT80J_wY6JviBkWLrX-10" value="+ ID book" style="align=left;strokeColor=none;fillColor=none;spacingLeft=4;fontSize=12;verticalAlign=top;resizable=0;rotatable=0;part=1;" vertex="1" parent="csFT80J_wY6JviBkWLrX-9">
          <mxGeometry y="30" width="160" height="40" as="geometry" />
        </mxCell>
        <mxCell id="csFT80J_wY6JviBkWLrX-11" value="Branch" style="swimlane;childLayout=stackLayout;horizontal=1;startSize=30;horizontalStack=0;rounded=1;fontSize=14;fontStyle=0;strokeWidth=2;resizeParent=0;resizeLast=1;shadow=0;dashed=0;align=center;" vertex="1" parent="1">
          <mxGeometry x="-50" y="690" width="160" height="90" as="geometry" />
        </mxCell>
        <mxCell id="csFT80J_wY6JviBkWLrX-12" value="+ ID branch&#xa;Branch name&#xa;" style="align=left;strokeColor=none;fillColor=none;spacingLeft=4;fontSize=12;verticalAlign=top;resizable=0;rotatable=0;part=1;" vertex="1" parent="csFT80J_wY6JviBkWLrX-11">
          <mxGeometry y="30" width="160" height="60" as="geometry" />
        </mxCell>
        <mxCell id="csFT80J_wY6JviBkWLrX-13" value="Type" style="swimlane;childLayout=stackLayout;horizontal=1;startSize=30;horizontalStack=0;rounded=1;fontSize=14;fontStyle=0;strokeWidth=2;resizeParent=0;resizeLast=1;shadow=0;dashed=0;align=center;" vertex="1" parent="1">
          <mxGeometry x="-440" y="310" width="160" height="90" as="geometry" />
        </mxCell>
        <mxCell id="csFT80J_wY6JviBkWLrX-14" value="+ ID Type &#xa;Type name&#xa;" style="align=left;strokeColor=none;fillColor=none;spacingLeft=4;fontSize=12;verticalAlign=top;resizable=0;rotatable=0;part=1;" vertex="1" parent="csFT80J_wY6JviBkWLrX-13">
          <mxGeometry y="30" width="160" height="60" as="geometry" />
        </mxCell>
        <mxCell id="csFT80J_wY6JviBkWLrX-30" style="edgeStyle=orthogonalEdgeStyle;rounded=0;orthogonalLoop=1;jettySize=auto;html=1;entryX=0;entryY=0.25;entryDx=0;entryDy=0;endArrow=none;endFill=0;" edge="1" parent="1" source="csFT80J_wY6JviBkWLrX-16" target="csFT80J_wY6JviBkWLrX-4">
          <mxGeometry relative="1" as="geometry" />
        </mxCell>
        <mxCell id="csFT80J_wY6JviBkWLrX-31" style="edgeStyle=orthogonalEdgeStyle;rounded=0;orthogonalLoop=1;jettySize=auto;html=1;entryX=0.75;entryY=1;entryDx=0;entryDy=0;endArrow=none;endFill=0;" edge="1" parent="1" source="csFT80J_wY6JviBkWLrX-16" target="csFT80J_wY6JviBkWLrX-2">
          <mxGeometry relative="1" as="geometry">
            <mxPoint x="230" y="525" as="targetPoint" />
            <Array as="points">
              <mxPoint x="330" y="525" />
              <mxPoint x="240" y="525" />
            </Array>
          </mxGeometry>
        </mxCell>
        <mxCell id="csFT80J_wY6JviBkWLrX-16" value="&lt;span style=&quot;font-weight: 700;&quot;&gt;Rating&lt;/span&gt;" style="shape=rhombus;perimeter=rhombusPerimeter;whiteSpace=wrap;html=1;align=center;" vertex="1" parent="1">
          <mxGeometry x="270" y="550" width="120" height="60" as="geometry" />
        </mxCell>
        <mxCell id="csFT80J_wY6JviBkWLrX-20" value="" style="edgeStyle=orthogonalEdgeStyle;rounded=0;orthogonalLoop=1;jettySize=auto;html=1;entryX=1;entryY=0.25;entryDx=0;entryDy=0;endArrow=none;endFill=0;" edge="1" parent="1" source="csFT80J_wY6JviBkWLrX-17" target="csFT80J_wY6JviBkWLrX-4">
          <mxGeometry relative="1" as="geometry" />
        </mxCell>
        <mxCell id="csFT80J_wY6JviBkWLrX-21" value="" style="edgeStyle=orthogonalEdgeStyle;rounded=0;orthogonalLoop=1;jettySize=auto;html=1;entryX=0;entryY=0.25;entryDx=0;entryDy=0;endArrow=none;endFill=0;" edge="1" parent="1" source="csFT80J_wY6JviBkWLrX-17" target="csFT80J_wY6JviBkWLrX-6">
          <mxGeometry relative="1" as="geometry" />
        </mxCell>
        <mxCell id="csFT80J_wY6JviBkWLrX-17" value="&lt;span style=&quot;font-weight: 700;&quot;&gt;Permit&lt;/span&gt;" style="shape=rhombus;perimeter=rhombusPerimeter;whiteSpace=wrap;html=1;align=center;" vertex="1" parent="1">
          <mxGeometry x="820" y="615" width="120" height="60" as="geometry" />
        </mxCell>
        <mxCell id="csFT80J_wY6JviBkWLrX-28" style="edgeStyle=orthogonalEdgeStyle;rounded=0;orthogonalLoop=1;jettySize=auto;html=1;endArrow=none;endFill=0;" edge="1" parent="1" source="csFT80J_wY6JviBkWLrX-18">
          <mxGeometry relative="1" as="geometry">
            <mxPoint x="670" y="570" as="targetPoint" />
          </mxGeometry>
        </mxCell>
        <mxCell id="csFT80J_wY6JviBkWLrX-29" style="edgeStyle=orthogonalEdgeStyle;rounded=0;orthogonalLoop=1;jettySize=auto;html=1;entryX=0.456;entryY=1.075;entryDx=0;entryDy=0;entryPerimeter=0;endArrow=none;endFill=0;" edge="1" parent="1" source="csFT80J_wY6JviBkWLrX-18" target="csFT80J_wY6JviBkWLrX-10">
          <mxGeometry relative="1" as="geometry">
            <Array as="points">
              <mxPoint x="670" y="310" />
              <mxPoint x="670" y="310" />
            </Array>
          </mxGeometry>
        </mxCell>
        <mxCell id="csFT80J_wY6JviBkWLrX-18" value="&lt;b&gt;Borrow&lt;/b&gt;" style="shape=rhombus;perimeter=rhombusPerimeter;whiteSpace=wrap;html=1;align=center;" vertex="1" parent="1">
          <mxGeometry x="610" y="380" width="120" height="60" as="geometry" />
        </mxCell>
        <mxCell id="csFT80J_wY6JviBkWLrX-23" value="" style="edgeStyle=orthogonalEdgeStyle;rounded=0;orthogonalLoop=1;jettySize=auto;html=1;endArrow=none;endFill=0;" edge="1" parent="1" source="csFT80J_wY6JviBkWLrX-22">
          <mxGeometry relative="1" as="geometry">
            <mxPoint x="200" y="290" as="targetPoint" />
          </mxGeometry>
        </mxCell>
        <mxCell id="csFT80J_wY6JviBkWLrX-24" value="" style="edgeStyle=orthogonalEdgeStyle;rounded=0;orthogonalLoop=1;jettySize=auto;html=1;" edge="1" parent="1" source="csFT80J_wY6JviBkWLrX-22" target="csFT80J_wY6JviBkWLrX-10">
          <mxGeometry relative="1" as="geometry" />
        </mxCell>
        <mxCell id="csFT80J_wY6JviBkWLrX-22" value="include" style="shape=rhombus;perimeter=rhombusPerimeter;whiteSpace=wrap;html=1;align=center;" vertex="1" parent="1">
          <mxGeometry x="350" y="170" width="120" height="60" as="geometry" />
        </mxCell>
        <mxCell id="csFT80J_wY6JviBkWLrX-26" style="edgeStyle=orthogonalEdgeStyle;rounded=0;orthogonalLoop=1;jettySize=auto;html=1;endArrow=none;endFill=0;entryX=1;entryY=0.5;entryDx=0;entryDy=0;" edge="1" parent="1" source="csFT80J_wY6JviBkWLrX-25" target="csFT80J_wY6JviBkWLrX-14">
          <mxGeometry relative="1" as="geometry">
            <mxPoint x="-270" y="345" as="targetPoint" />
            <Array as="points">
              <mxPoint x="-220" y="410" />
              <mxPoint x="-220" y="345" />
              <mxPoint x="-280" y="345" />
            </Array>
          </mxGeometry>
        </mxCell>
        <mxCell id="csFT80J_wY6JviBkWLrX-27" style="edgeStyle=orthogonalEdgeStyle;rounded=0;orthogonalLoop=1;jettySize=auto;html=1;" edge="1" parent="1" source="csFT80J_wY6JviBkWLrX-25" target="csFT80J_wY6JviBkWLrX-2">
          <mxGeometry relative="1" as="geometry" />
        </mxCell>
        <mxCell id="csFT80J_wY6JviBkWLrX-25" value="include" style="shape=rhombus;perimeter=rhombusPerimeter;whiteSpace=wrap;html=1;align=center;" vertex="1" parent="1">
          <mxGeometry x="-160" y="380" width="120" height="60" as="geometry" />
        </mxCell>
        <mxCell id="csFT80J_wY6JviBkWLrX-33" style="edgeStyle=orthogonalEdgeStyle;rounded=0;orthogonalLoop=1;jettySize=auto;html=1;endArrow=none;endFill=0;" edge="1" parent="1" source="csFT80J_wY6JviBkWLrX-32" target="csFT80J_wY6JviBkWLrX-11">
          <mxGeometry relative="1" as="geometry" />
        </mxCell>
        <mxCell id="csFT80J_wY6JviBkWLrX-34" style="edgeStyle=orthogonalEdgeStyle;rounded=0;orthogonalLoop=1;jettySize=auto;html=1;endArrow=none;endFill=0;" edge="1" parent="1" source="csFT80J_wY6JviBkWLrX-32" target="csFT80J_wY6JviBkWLrX-2">
          <mxGeometry relative="1" as="geometry" />
        </mxCell>
        <mxCell id="csFT80J_wY6JviBkWLrX-32" value="include" style="shape=rhombus;perimeter=rhombusPerimeter;whiteSpace=wrap;html=1;align=center;" vertex="1" parent="1">
          <mxGeometry x="-30" y="550" width="120" height="60" as="geometry" />
        </mxCell>
      </root>
    </mxGraphModel>
  </diagram>
</mxfile>
